<?xml version="1.0" standalone="no"?>
<!DOCTYPE svg PUBLIC "-//W3C//DTD SVG 20010904//EN"
 "http://www.w3.org/TR/2001/REC-SVG-20010904/DTD/svg10.dtd">
<svg version="1.0" xmlns="http://www.w3.org/2000/svg"
 width="900.000000pt" height="369.000000pt" viewBox="0 0 900.000000 369.000000"
 preserveAspectRatio="xMidYMid meet">
<metadata>
Created by potrace 1.10, written by Peter Selinger 2001-2011
</metadata>
<g transform="translate(0.000000,369.000000) scale(0.100000,-0.100000)"
fill="#4169e1" stroke="none">
<path d="M1464 3585 c-4 -8 -1 -57 6 -108 6 -50 18 -144 25 -207 16 -137 40
-340 60 -505 8 -66 19 -165 25 -220 5 -55 12 -113 15 -130 3 -16 13 -86 21
-155 32 -275 46 -390 59 -505 8 -66 21 -181 29 -255 15 -134 22 -170 35 -170
3 0 21 33 40 73 19 39 60 126 91 192 32 66 77 161 100 210 23 50 66 140 95
200 29 61 68 144 88 185 47 101 138 291 202 425 29 61 74 155 100 210 26 55
64 136 85 180 46 98 146 309 165 350 8 17 11 33 7 37 -4 4 -36 11 -72 17 -82
12 -228 36 -350 56 -52 9 -135 22 -185 30 -82 13 -137 22 -335 55 -36 6 -108
17 -160 26 -52 8 -105 17 -118 20 -14 3 -25 -1 -28 -11z"/>
<path d="M1245 3095 c-27 -12 -53 -23 -165 -71 -19 -9 -44 -19 -55 -24 -11 -5
-123 -52 -250 -105 -126 -53 -239 -100 -250 -105 -11 -5 -42 -18 -70 -30 -75
-32 -95 -43 -95 -52 0 -7 111 -150 130 -168 3 -3 50 -61 105 -130 55 -68 108
-134 117 -145 87 -105 139 -168 168 -205 64 -80 264 -325 270 -330 3 -3 30
-36 60 -75 30 -38 57 -72 60 -75 3 -3 23 -27 45 -55 21 -27 42 -52 45 -55 3
-3 37 -44 75 -92 39 -49 73 -88 78 -88 10 0 8 50 -4 135 -5 39 -17 126 -25
195 -8 69 -21 177 -29 240 -38 302 -45 364 -60 485 -9 72 -20 168 -25 215 -5
47 -12 100 -15 118 -8 45 -36 276 -42 337 -8 102 -12 107 -68 80z"/>
<path d="M4248 2723 c-17 -4 -18 -53 -18 -839 l0 -834 133 0 134 0 6 188 c4
104 7 480 7 835 l0 647 -102 0 c-57 0 -112 2 -123 4 -11 2 -28 2 -37 -1z"/>
<path d="M7147 2714 c-4 -4 -7 -58 -7 -121 l0 -113 140 0 141 0 -3 118 -3 117
-131 3 c-71 1 -133 -1 -137 -4z"/>
<path d="M2970 2604 c-83 -15 -105 -23 -200 -67 -161 -76 -270 -184 -347 -347
-76 -158 -85 -245 -81 -745 l3 -380 135 0 135 0 5 185 5 185 500 0 500 0 6
-190 c3 -104 6 -191 7 -193 1 -1 62 -1 135 0 l132 3 3 736 2 736 -32 35 c-18
20 -48 41 -67 47 -51 17 -744 12 -841 -5z m655 -275 c4 -6 9 -140 11 -299 4
-278 3 -289 -16 -303 -16 -11 -103 -13 -497 -10 -263 3 -484 6 -492 9 -11 4
-13 28 -9 132 5 118 8 132 41 202 19 41 53 96 76 122 61 68 175 129 276 148
66 12 603 12 610 -1z"/>
<path d="M444 2250 c-16 -22 -49 -69 -74 -104 -25 -35 -51 -72 -58 -82 -7 -11
-34 -49 -60 -86 -26 -37 -67 -97 -92 -133 -25 -36 -49 -71 -55 -78 -5 -7 -30
-41 -54 -76 -54 -78 -58 -73 117 -131 70 -22 136 -45 147 -50 11 -5 110 -39
220 -75 110 -36 207 -70 215 -74 9 -5 31 -12 50 -16 19 -4 41 -11 50 -16 8 -5
105 -38 215 -74 110 -37 209 -70 220 -75 44 -18 111 -40 123 -40 9 0 -90 134
-119 160 -3 3 -43 52 -90 110 -46 58 -86 107 -89 110 -3 3 -23 28 -45 55 -21
28 -42 52 -45 55 -3 3 -43 52 -89 110 -47 58 -88 107 -91 110 -5 5 -250 307
-318 393 -19 23 -37 43 -42 45 -4 2 -21 -15 -36 -38z"/>
<path d="M5140 2207 c-14 -12 -53 -44 -87 -70 -34 -26 -68 -53 -75 -60 -7 -7
-41 -34 -75 -60 -34 -26 -68 -53 -75 -60 -7 -7 -44 -36 -83 -66 -38 -30 -89
-74 -112 -98 -36 -37 -43 -51 -43 -84 0 -59 17 -83 142 -203 62 -60 193 -187
291 -282 l178 -173 187 -3 c103 -2 190 0 195 3 4 3 -52 64 -125 135 -218 213
-420 408 -465 449 -24 20 -43 43 -43 49 0 20 39 53 290 248 58 45 107 84 110
88 3 3 37 30 75 60 39 30 81 65 95 77 14 13 28 23 31 23 4 0 14 11 23 25 l16
25 -212 0 c-208 0 -214 -1 -238 -23z"/>
<path d="M6003 2210 c-86 -18 -159 -69 -211 -149 -37 -56 -37 -56 -37 -167 0
-77 4 -120 15 -140 25 -50 81 -114 122 -140 77 -49 113 -54 396 -54 296 0 316
-4 345 -66 21 -43 21 -76 1 -115 -29 -57 -44 -59 -478 -59 l-395 0 -3 -127
c-2 -71 0 -132 4 -138 4 -6 159 -10 430 -10 456 0 415 -4 534 50 59 27 126 97
158 165 29 60 31 73 31 175 0 104 -2 114 -33 178 -91 189 -217 235 -598 222
-175 -6 -205 -5 -232 9 -25 13 -32 23 -32 45 0 56 1 56 384 53 193 -2 356 1
363 5 13 9 21 242 9 261 -8 14 -704 15 -773 2z"/>
<path d="M7152 2212 c-10 -7 -12 -131 -10 -588 l3 -579 120 -3 c66 -1 126 2
134 7 20 13 30 1149 10 1162 -17 11 -239 12 -257 1z"/>
<path d="M7935 2191 c-90 -32 -158 -86 -207 -163 -40 -62 -47 -108 -54 -343
-7 -256 1 -345 39 -428 30 -65 99 -137 159 -165 23 -11 57 -26 73 -33 23 -11
109 -15 363 -17 293 -3 341 -1 390 14 135 41 231 130 262 243 6 23 18 45 26
48 22 8 21 553 -1 553 -8 0 -17 12 -21 28 -12 54 -17 67 -45 112 -35 57 -73
91 -147 133 l-57 32 -365 2 c-333 3 -369 1 -415 -16z m733 -279 c22 -20 32
-42 37 -75 9 -56 0 -433 -10 -465 -4 -13 -25 -32 -46 -42 -35 -18 -60 -20
-313 -20 -315 0 -347 6 -372 66 -17 41 -20 446 -4 491 6 15 23 38 38 50 27 23
31 23 333 23 l307 0 30 -28z"/>
<path d="M266 1329 c-2 -8 -7 -86 -11 -174 -3 -88 -10 -227 -14 -310 -4 -82
-4 -154 0 -159 4 -4 29 -3 56 3 26 7 75 18 108 26 64 14 162 38 260 61 33 8
80 19 105 24 25 5 61 14 80 19 35 10 210 52 385 92 100 23 145 38 145 48 0 4
-35 17 -77 31 -43 13 -82 27 -88 31 -5 4 -26 10 -45 14 -19 4 -39 11 -45 15
-5 4 -26 11 -45 15 -19 4 -39 11 -45 15 -5 4 -25 11 -43 15 -18 4 -45 13 -60
21 -15 8 -35 14 -45 14 -9 0 -25 4 -35 10 -9 5 -136 50 -282 99 -146 48 -273
92 -282 96 -12 4 -19 2 -22 -6z"/>
<path d="M2037 1058 c-64 -33 -116 -63 -114 -65 6 -6 261 -22 266 -17 6 6 -20
144 -27 144 -4 0 -60 -28 -125 -62z"/>
<path d="M4580 975 c-11 -13 -11 -19 3 -32 21 -21 49 -9 45 19 -4 28 -30 35
-48 13z"/>
<path d="M5090 980 c-17 -10 -24 -259 -9 -323 9 -37 18 -51 41 -63 40 -21 72
-15 76 14 3 18 -3 25 -27 33 l-31 11 0 163 c0 151 -1 163 -19 168 -10 2 -24 1
-31 -3z"/>
<path d="M5448 979 c-10 -5 -18 -14 -18 -19 0 -14 37 -31 54 -24 21 8 21 40 0
48 -19 7 -15 8 -36 -5z"/>
<path d="M6652 978 c-15 -15 -16 -302 -1 -346 10 -30 48 -52 90 -52 31 0 25
46 -8 62 l-28 13 -3 160 c-2 112 -6 161 -15 167 -16 10 -21 10 -35 -4z"/>
<path d="M6828 980 c-14 -9 -16 -29 -13 -168 1 -97 7 -167 15 -183 13 -30 48
-49 85 -49 37 0 35 44 -2 62 l-28 13 -3 160 c-3 173 -9 191 -54 165z"/>
<path d="M7004 976 c-18 -14 -18 -16 -2 -32 9 -9 24 -14 32 -11 23 9 32 37 15
48 -19 12 -22 11 -45 -5z"/>
<path d="M2504 947 c-56 -17 -80 -36 -109 -91 -22 -42 -25 -59 -25 -155 0 -84
3 -111 15 -121 21 -18 45 4 45 41 0 52 20 60 144 57 l111 -3 6 -43 c6 -48 20
-67 43 -59 14 6 16 32 16 185 0 125 -4 182 -12 190 -16 16 -178 15 -234 -1z
m184 -126 c2 -53 -1 -77 -10 -82 -22 -14 -212 -11 -232 4 -40 29 15 138 77
150 12 3 54 4 92 3 l70 -1 3 -74z"/>
<path d="M3265 948 c-2 -7 -6 -29 -7 -48 -3 -33 -6 -35 -43 -40 -35 -4 -40 -8
-40 -30 0 -22 5 -25 42 -28 l42 -3 3 -106 c2 -87 6 -108 20 -117 9 -5 21 -7
25 -2 4 4 10 56 13 114 l5 107 52 3 c38 2 56 8 62 21 15 28 -1 40 -59 43 l-55
3 -5 45 c-4 37 -9 46 -28 48 -12 2 -24 -3 -27 -10z"/>
<path d="M6035 948 c-2 -7 -6 -29 -7 -48 -3 -34 -5 -35 -46 -38 -40 -3 -43 -5
-40 -30 3 -23 9 -28 43 -32 l40 -5 3 -102 c2 -88 5 -104 21 -113 33 -17 44 11
42 108 -1 48 2 92 7 99 4 6 32 13 62 15 52 3 55 5 58 31 3 27 2 27 -52 27 -60
0 -67 5 -76 60 -4 26 -11 36 -28 38 -12 2 -24 -3 -27 -10z"/>
<path d="M1921 868 c69 -56 261 -198 268 -198 3 0 14 21 24 48 10 26 26 63 34
84 8 20 13 41 9 46 -6 10 -87 18 -256 28 -79 4 -92 3 -79 -8z"/>
<path d="M2865 835 c-23 -22 -25 -32 -25 -109 0 -46 3 -92 6 -101 12 -30 63
-46 160 -50 82 -3 95 -1 104 14 19 37 -7 50 -110 53 l-95 3 0 75 0 75 97 3
c100 3 125 13 112 46 -5 13 -24 16 -116 16 -102 0 -110 -1 -133 -25z"/>
<path d="M3507 854 c-4 -4 -7 -48 -7 -98 0 -145 31 -173 199 -181 120 -5 122
-2 119 153 l-3 127 -30 0 -30 0 0 -95 c0 -52 -4 -101 -8 -107 -5 -9 -33 -13
-78 -13 -93 0 -102 11 -109 128 -4 78 -7 87 -25 90 -12 2 -24 0 -28 -4z"/>
<path d="M3957 853 c-4 -3 -7 -15 -7 -25 0 -16 9 -18 68 -18 114 0 113 0 110
-89 l-3 -76 -90 0 c-78 0 -90 2 -93 18 -7 34 17 47 83 47 48 0 64 4 69 16 11
28 -4 34 -80 34 -89 0 -120 -16 -130 -66 -8 -45 11 -90 44 -103 25 -9 108 -15
174 -12 14 0 40 13 57 27 30 25 31 28 31 114 0 84 -2 91 -27 115 -25 23 -36
25 -114 25 -47 0 -89 -3 -92 -7z"/>
<path d="M4304 845 c-35 -24 -45 -64 -42 -166 3 -93 3 -94 28 -94 25 0 25 2
30 97 3 53 10 102 15 107 6 6 46 11 90 13 79 3 80 3 83 31 l3 27 -93 0 c-66 0
-100 -4 -114 -15z"/>
<path d="M4577 853 c-4 -3 -7 -61 -7 -128 0 -128 10 -165 44 -152 14 6 16 26
16 147 l0 140 -23 0 c-13 0 -27 -3 -30 -7z"/>
<path d="M4767 853 c-4 -3 -7 -15 -7 -25 0 -16 9 -18 79 -18 100 0 111 -9 111
-89 0 -31 -5 -62 -12 -69 -7 -7 -44 -12 -94 -12 -88 0 -105 10 -84 50 8 15 24
20 78 22 61 3 67 5 70 26 4 25 4 25 -93 22 -90 -2 -115 -22 -115 -90 0 -75 18
-85 152 -85 143 0 148 5 148 140 0 89 -1 95 -26 114 -22 18 -41 21 -114 21
-48 0 -90 -3 -93 -7z"/>
<path d="M5437 854 c-4 -4 -7 -63 -7 -130 0 -98 3 -126 16 -138 12 -12 20 -13
35 -5 18 9 19 20 17 142 l-3 132 -25 3 c-14 2 -29 0 -33 -4z"/>
<path d="M5579 833 c-13 -36 -9 -229 6 -250 7 -9 19 -14 28 -10 13 5 17 26 19
114 l3 108 82 3 83 3 20 -33 c15 -26 20 -51 20 -111 0 -61 3 -79 16 -84 29
-11 36 14 35 113 -2 104 -9 123 -58 155 -23 15 -48 19 -136 19 -107 0 -108 0
-118 -27z"/>
<path d="M6295 833 c-23 -25 -25 -35 -25 -113 1 -115 21 -138 129 -145 70 -4
103 12 85 42 -8 13 -28 19 -75 23 -35 3 -70 9 -76 13 -8 5 -13 30 -13 63 0 75
20 94 101 94 69 0 99 -12 99 -40 0 -28 -36 -43 -86 -36 -32 4 -47 1 -59 -10
-29 -29 -1 -44 81 -44 67 0 75 2 99 27 17 19 25 39 25 63 0 24 -8 44 -25 63
-25 26 -29 27 -130 27 -101 0 -105 -1 -130 -27z"/>
<path d="M6997 854 c-4 -4 -7 -63 -7 -130 0 -98 3 -126 16 -138 12 -12 20 -13
35 -5 18 9 19 20 17 142 l-3 132 -25 3 c-14 2 -29 0 -33 -4z"/>
<path d="M7156 829 c-23 -27 -26 -39 -26 -108 0 -63 4 -83 20 -103 22 -29 77
-46 141 -44 42 1 44 2 44 31 0 29 -2 30 -50 33 -95 5 -95 4 -95 75 0 36 5 68
12 75 7 7 43 12 90 12 97 0 98 -2 98 -147 -1 -135 -5 -141 -91 -145 -62 -3
-64 -4 -67 -30 l-3 -28 80 0 c75 0 81 2 110 31 l31 31 0 143 0 143 -29 31
c-29 31 -29 31 -134 31 -105 0 -105 0 -131 -31z"/>
<path d="M7546 829 c-23 -27 -26 -39 -26 -111 0 -74 2 -82 28 -107 28 -28 72
-40 142 -37 32 1 35 4 35 31 0 30 0 30 -70 35 l-70 5 -3 76 -3 76 32 7 c52 10
134 7 147 -6 18 -18 14 -46 -7 -58 -11 -5 -45 -10 -75 -10 -53 0 -56 -1 -56
-25 0 -24 2 -25 74 -25 93 0 102 4 126 50 18 35 18 41 5 74 -8 19 -24 40 -34
46 -11 5 -65 10 -119 10 -100 0 -100 0 -126 -31z"/>
<path d="M7902 848 c-8 -8 -12 -53 -12 -135 0 -110 2 -123 19 -132 32 -17 44
10 42 93 -1 41 1 85 5 100 6 25 9 26 81 26 101 0 112 -13 113 -126 0 -60 4
-85 15 -94 12 -10 18 -10 30 0 11 9 15 35 15 107 l0 95 -39 39 -39 39 -109 0
c-71 0 -113 -4 -121 -12z"/>
<path d="M8324 852 c-32 -22 -44 -59 -44 -137 0 -67 3 -85 20 -103 27 -28 71
-39 155 -37 108 3 105 2 105 35 l0 30 -98 0 c-63 0 -102 4 -110 12 -13 13 -16
116 -4 135 5 8 43 13 107 15 l100 3 3 28 3 27 -113 0 c-62 0 -118 -4 -124 -8z"/>
<path d="M8656 839 c-25 -19 -26 -25 -26 -113 0 -130 12 -143 144 -151 46 -2
56 0 61 15 12 38 -4 50 -69 50 -35 0 -67 5 -74 12 -7 7 -12 38 -12 69 0 78 13
89 100 89 49 0 73 -4 84 -16 18 -18 19 -23 6 -44 -6 -10 -28 -15 -70 -16 -64
-1 -87 -12 -77 -38 5 -13 22 -16 80 -16 99 0 127 20 127 90 0 41 -4 52 -26 69
-23 18 -41 21 -124 21 -83 0 -101 -3 -124 -21z"/>
<path d="M1405 803 c-11 -2 -85 -20 -165 -39 -80 -20 -228 -56 -330 -80 -102
-25 -198 -49 -215 -54 -16 -4 -56 -14 -87 -20 -31 -6 -61 -17 -66 -23 -8 -9 4
-36 38 -92 27 -44 50 -83 50 -87 0 -4 25 -48 55 -98 30 -50 64 -108 75 -130
11 -22 25 -40 31 -40 14 0 649 650 649 664 0 6 -3 6 -35 -1z"/>
<path d="M1864 687 c105 -287 122 -327 135 -327 19 0 191 129 191 144 -1 6
-67 61 -147 121 -80 61 -151 115 -157 120 -7 6 -22 16 -34 22 -21 12 -20 8 12
-80z"/>
<path d="M1304 475 c-137 -141 -249 -263 -249 -272 0 -10 35 -34 90 -62 50
-26 122 -64 162 -85 40 -21 80 -36 90 -34 13 2 21 20 30 63 6 33 19 92 27 130
9 39 20 93 25 120 6 28 19 91 31 140 31 136 52 247 47 251 -2 3 -116 -111
-253 -251z"/>
<path d="M1696 658 c-24 -111 -59 -282 -76 -372 -5 -26 -14 -63 -20 -82 -17
-50 -7 -57 64 -49 33 4 103 10 154 14 50 4 94 10 97 13 5 5 -189 535 -199 545
-2 2 -11 -29 -20 -69z"/>
</g>
</svg>
