<?xml version="1.0" standalone="no"?>
<!DOCTYPE svg PUBLIC "-//W3C//DTD SVG 20010904//EN"
 "http://www.w3.org/TR/2001/REC-SVG-20010904/DTD/svg10.dtd">
<svg version="1.0" xmlns="http://www.w3.org/2000/svg"
 width="781.000000pt" height="204.000000pt" viewBox="0 0 781.000000 204.000000"
 preserveAspectRatio="xMidYMid meet">
<metadata>
Created by potrace 1.15, written by Peter Selinger 2001-2017
</metadata>
<g transform="translate(0.000000,204.000000) scale(0.100000,-0.100000)"
fill="#244b6d" stroke="none">
<path d="M2257 1738 c-4 -145 -7 -588 -7 -985 l0 -723 165 0 165 0 0 843 c0
463 3 906 7 985 l6 142 -165 0 -165 0 -6 -262z"/>
<path d="M5647 1983 c-4 -3 -7 -69 -7 -145 l0 -138 165 0 165 0 0 145 0 145
-158 0 c-87 0 -162 -3 -165 -7z"/>
<path d="M797 1860 c-280 -48 -518 -223 -646 -477 -17 -34 -43 -102 -57 -150
-26 -84 -27 -102 -35 -413 -4 -179 -8 -427 -8 -552 l-1 -228 165 0 165 0 0
225 0 225 590 0 590 0 0 -225 0 -225 165 0 165 0 -2 864 c-3 855 -3 865 -24
892 -11 15 -33 37 -48 48 -27 20 -40 21 -499 22 -260 1 -494 -2 -520 -6z m763
-680 l0 -360 -585 0 -585 0 0 120 c0 144 11 202 57 299 66 138 192 235 365
281 65 17 111 19 411 19 l337 1 0 -360z"/>
<path d="M3040 1175 c-168 -134 -317 -259 -332 -277 -33 -38 -45 -102 -28
-152 8 -26 100 -121 361 -376 l349 -340 238 0 237 0 -115 113 c-63 62 -238
232 -389 378 l-274 266 386 309 c212 170 385 309 384 310 -1 1 -117 5 -257 8
l-255 7 -305 -246z"/>
<path d="M4309 1395 c-77 -21 -137 -56 -190 -112 -78 -82 -93 -126 -94 -263 0
-104 3 -120 26 -170 41 -85 90 -135 176 -177 l77 -38 340 -5 c258 -4 347 -8
364 -18 26 -15 61 -84 62 -119 0 -40 -30 -99 -59 -116 -26 -15 -75 -17 -505
-17 l-476 0 0 -165 0 -165 488 0 c536 0 537 0 655 63 308 163 293 661 -25 816
-90 44 -158 51 -483 51 -213 0 -294 3 -303 12 -20 20 -15 86 7 98 13 6 169 10
440 10 l421 0 0 165 0 165 -437 -1 c-321 -1 -450 -4 -484 -14z"/>
<path d="M5640 720 l0 -690 165 0 165 0 0 690 0 690 -165 0 -165 0 0 -690z"/>
<path d="M6668 1398 c-218 -25 -373 -180 -398 -399 -13 -108 -12 -491 0 -589
25 -195 178 -348 380 -380 106 -16 712 -13 788 5 170 40 283 141 335 298 18
55 21 94 24 342 5 308 -3 380 -53 482 -56 115 -173 207 -294 232 -64 13 -680
20 -782 9z m739 -345 c59 -29 65 -64 61 -359 -3 -232 -5 -263 -21 -288 -35
-53 -57 -56 -409 -56 -191 0 -338 4 -360 10 -23 7 -46 23 -60 43 -22 31 -23
41 -26 262 -2 127 -1 254 3 283 8 68 45 112 100 121 21 3 183 5 359 3 272 -2
326 -5 353 -19z"/>
</g>
</svg>
